<svg xmlns="http://www.w3.org/2000/svg" xmlns:xlink="http://www.w3.org/1999/xlink" width="500" zoomAndPan="magnify" viewBox="0 0 375 374.999991" height="500" preserveAspectRatio="xMidYMid meet" version="1.0"><defs><g/></defs><rect x="-37.5" width="450" fill="#ffffff" y="-37.499999" height="449.999989" fill-opacity="1"/><rect x="-37.5" width="450" fill="#ffffff" y="-37.499999" height="449.999989" fill-opacity="1"/><g fill="#019b3d" fill-opacity="1"><g transform="translate(57.674634, 298.625711)"><g><path d="M 239.4375 -224.890625 L 239.4375 0 L 200.953125 0 L 193.90625 -25.828125 C 186.082031 -15.492188 176.066406 -7.664062 163.859375 -2.34375 C 151.648438 2.976562 139.285156 5.640625 126.765625 5.640625 C 111.117188 5.640625 96.484375 2.585938 82.859375 -3.515625 C 69.242188 -9.617188 57.347656 -17.992188 47.171875 -28.640625 C 37.003906 -39.285156 28.945312 -51.804688 23 -66.203125 C 17.050781 -80.597656 14.078125 -95.929688 14.078125 -112.203125 C 14.078125 -128.484375 17.050781 -143.820312 23 -158.21875 C 28.945312 -172.613281 37.003906 -185.132812 47.171875 -195.78125 C 57.347656 -206.425781 69.242188 -214.800781 82.859375 -220.90625 C 96.484375 -227.007812 111.117188 -230.0625 126.765625 -230.0625 C 139.285156 -230.0625 151.332031 -227.632812 162.90625 -222.78125 C 174.488281 -217.925781 184.820312 -210.332031 193.90625 -200 L 200.953125 -224.890625 Z M 126.765625 -34.75 C 135.835938 -34.75 144.441406 -36.78125 152.578125 -40.84375 C 160.722656 -44.914062 167.769531 -50.472656 173.71875 -57.515625 C 179.664062 -64.554688 184.359375 -72.769531 187.796875 -82.15625 C 191.242188 -91.550781 192.96875 -101.566406 192.96875 -112.203125 C 192.96875 -122.847656 191.242188 -132.863281 187.796875 -142.25 C 184.359375 -151.644531 179.664062 -159.863281 173.71875 -166.90625 C 167.769531 -173.945312 160.722656 -179.5 152.578125 -183.5625 C 144.441406 -187.632812 135.835938 -189.671875 126.765625 -189.671875 C 117.691406 -189.671875 109.082031 -187.632812 100.9375 -183.5625 C 92.800781 -179.5 85.757812 -173.945312 79.8125 -166.90625 C 73.863281 -159.863281 69.164062 -151.644531 65.71875 -142.25 C 62.28125 -132.863281 60.5625 -122.847656 60.5625 -112.203125 C 60.5625 -101.566406 62.28125 -91.550781 65.71875 -82.15625 C 69.164062 -72.769531 73.863281 -64.554688 79.8125 -57.515625 C 85.757812 -50.472656 92.800781 -44.914062 100.9375 -40.84375 C 109.082031 -36.78125 117.691406 -34.75 126.765625 -34.75 Z M 126.765625 -34.75 "/></g></g></g></svg>